<svg width="31" height="30" viewBox="0 0 31 30" fill="none" xmlns="http://www.w3.org/2000/svg">
<g clip-path="url(#clip0_1499_4570)">
<path fill-rule="evenodd" clip-rule="evenodd" d="M28.9765 5.71821L29.7811 3.7464C29.7811 3.7464 28.7572 2.65053 27.5138 1.40876C26.2709 0.166991 23.6383 0.89757 23.6383 0.89757L20.6403 -2.5H10.1102L7.11226 0.89757C7.11226 0.89757 4.4796 0.166991 3.23676 1.40876C1.99338 2.65053 0.969925 3.7464 0.969925 3.7464L1.77453 5.71821L0.75 8.63999C0.75 8.63999 3.76136 20.031 4.11431 21.4225C4.80895 24.1613 5.28421 25.2202 7.2587 26.6084C9.23266 27.9961 12.8158 30.4061 13.4005 30.7719C13.9857 31.1367 14.7174 31.7589 15.3755 31.7589C16.0337 31.7589 16.7648 31.1367 17.3495 30.7719C17.9347 30.4067 21.5173 27.9961 23.4924 26.6084C25.4663 25.2207 25.9421 24.1613 26.6368 21.4225C26.9892 20.031 30 8.63999 30 8.63999L28.9765 5.71821Z" fill="url(#paint0_linear_1499_4570)"/>
<path fill-rule="evenodd" clip-rule="evenodd" d="M19.1046 3.67277C19.5434 3.67277 22.7978 3.05215 22.7978 3.05215C22.7978 3.05215 26.6539 7.70812 26.6539 8.70368C26.6539 9.52652 26.3219 9.84836 25.9314 10.2281C25.8499 10.3075 25.7651 10.3891 25.6809 10.4792L22.7897 13.5458C22.7587 13.5784 22.7272 13.6106 22.6953 13.6423C22.4067 13.932 21.9819 14.359 22.2812 15.0681L22.3429 15.2124C22.6717 15.9805 23.0778 16.9289 22.5612 17.889C22.0114 18.9114 21.07 19.5937 20.4665 19.4805C19.8636 19.3679 18.4465 18.6282 17.9256 18.2908C17.4048 17.9529 15.7532 16.5925 15.7532 16.0717C15.7532 15.6378 16.9408 14.9158 17.5179 14.5644C17.6327 14.4947 17.7234 14.44 17.7754 14.4046C17.835 14.3643 17.9347 14.3026 18.0576 14.2265C18.5838 13.8993 19.5348 13.3092 19.559 13.048C19.5885 12.7251 19.5772 12.6307 19.1524 11.8336C19.0622 11.6641 18.9566 11.4828 18.8477 11.295C18.4432 10.6004 17.9905 9.82262 18.0914 9.2653C18.204 8.6361 19.191 8.27563 20.0267 7.96988C20.1308 7.93234 20.2332 7.89479 20.3308 7.85778L21.2014 7.53111C22.0361 7.21892 22.963 6.87187 23.1164 6.8016C23.3277 6.70451 23.273 6.61118 22.632 6.55056C22.5282 6.54039 22.4245 6.52966 22.3209 6.51838C21.527 6.43417 20.0632 6.27915 19.3519 6.47708C19.2119 6.51624 19.0553 6.55861 18.8906 6.60313C18.0914 6.8193 17.1114 7.08428 17.0169 7.23716C17.0009 7.26398 16.9848 7.28704 16.9692 7.3085C16.8791 7.43616 16.8206 7.51984 16.9204 8.06268C16.9499 8.22468 17.011 8.54276 17.0867 8.93648C17.3066 10.0887 17.6515 11.8856 17.695 12.289C17.7009 12.3459 17.7078 12.4 17.7143 12.4526C17.7695 12.9032 17.806 13.203 17.2825 13.3226L17.1457 13.3538C16.5546 13.4889 15.6883 13.6879 15.3756 13.6879C15.0623 13.6879 14.1955 13.4895 13.6044 13.3538L13.4681 13.3226C12.9446 13.203 12.9816 12.9032 13.0368 12.4526C13.0433 12.4 13.0497 12.3453 13.0556 12.289C13.0991 11.8851 13.4445 10.0833 13.6655 8.93165C13.7406 8.54008 13.8012 8.2236 13.8307 8.06268C13.93 7.51984 13.8715 7.43616 13.7814 7.3085C13.7648 7.28507 13.7487 7.26128 13.7331 7.23716C13.6398 7.08428 12.6603 6.8193 11.8605 6.60313C11.6958 6.55861 11.5387 6.51624 11.3992 6.47708C10.6874 6.27861 9.2241 6.43417 8.43022 6.51838C8.309 6.53125 8.20386 6.54252 8.11911 6.55056C7.47757 6.61118 7.4234 6.70451 7.63474 6.8016C7.78761 6.87187 8.71452 7.21892 9.54862 7.53111C9.86885 7.65073 10.1762 7.76552 10.4197 7.85778C10.5179 7.89479 10.6198 7.9318 10.7244 7.97042C11.5601 8.27617 12.5471 8.6361 12.6598 9.2653C12.7601 9.82262 12.3073 10.6004 11.9034 11.295C11.794 11.4828 11.6889 11.6641 11.5982 11.8336C11.1739 12.6307 11.1627 12.7251 11.1922 13.048C11.2158 13.3098 12.1663 13.8993 12.693 14.2265C12.8158 14.3026 12.9156 14.3643 12.9752 14.4046C13.0277 14.44 13.1178 14.4947 13.2326 14.5644C13.8098 14.9152 14.9974 15.6372 14.9974 16.0717C14.9974 16.592 13.3463 17.9529 12.825 18.2908C12.3047 18.6287 10.8875 19.3679 10.284 19.4805C9.68111 19.5932 8.73919 18.9114 8.18992 17.8896C7.67336 16.9289 8.07888 15.9805 8.40769 15.2129L8.46938 15.0681C8.76923 14.359 8.3444 13.932 8.05528 13.6423C8.02356 13.6106 7.99227 13.5784 7.96141 13.5458L5.0702 10.4792C4.98545 10.3896 4.9007 10.3075 4.81916 10.2281C4.42866 9.8489 4.09717 9.52652 4.09717 8.70368C4.09717 7.70866 7.95336 3.05215 7.95336 3.05215C7.95336 3.05215 11.2072 3.67277 11.646 3.67277C11.9962 3.67277 12.6721 3.44051 13.3769 3.19805C13.5555 3.1369 13.7358 3.07468 13.9133 3.01568C14.7903 2.72334 15.3756 2.72119 15.3756 2.72119C15.3756 2.72119 15.9602 2.72334 16.8378 3.01568C17.0148 3.07468 17.1956 3.1369 17.3742 3.19805C18.0785 3.44051 18.7549 3.67277 19.1046 3.67277ZM18.5462 20.1435C19.2339 20.4976 19.722 20.7486 19.9065 20.8639C20.1452 21.013 19.9999 21.2946 19.7821 21.4486C19.5649 21.6015 16.6425 23.8619 16.3593 24.1118L16.244 24.2143C15.971 24.4605 15.6223 24.7743 15.375 24.7743C15.1283 24.7743 14.7796 24.46 14.506 24.2143L14.3918 24.1118C14.1075 23.8619 11.1857 21.6015 10.9685 21.4481C10.7512 21.2946 10.6053 21.0136 10.844 20.8634C11.0286 20.7486 11.5172 20.497 12.206 20.1425L12.8604 19.8051C13.8903 19.2729 15.1749 18.8197 15.3756 18.8197C15.5756 18.8197 16.8598 19.2724 17.8907 19.8051C18.1246 19.9263 18.344 20.04 18.5462 20.1435Z" fill="white"/>
<path fill-rule="evenodd" clip-rule="evenodd" d="M23.6383 0.89757L20.6404 -2.5H10.1103L7.11232 0.89757C7.11232 0.89757 4.47966 0.166991 3.23682 1.40876C3.23682 1.40876 6.74703 1.09228 7.9534 3.0523C7.9534 3.0523 11.2072 3.67291 11.646 3.67291C12.0848 3.67291 13.0353 3.30816 13.9128 3.01582C14.7904 2.72348 15.3756 2.72134 15.3756 2.72134C15.3756 2.72134 15.9603 2.72348 16.8378 3.01582C17.7154 3.30816 18.6659 3.67291 19.1047 3.67291C19.5434 3.67291 22.7978 3.0523 22.7978 3.0523C24.0042 1.09228 27.5138 1.40876 27.5138 1.40876C26.271 0.166991 23.6383 0.89757 23.6383 0.89757Z" fill="url(#paint1_linear_1499_4570)"/>
</g>
<defs>
<linearGradient id="paint0_linear_1499_4570" x1="0.750536" y1="32.0008" x2="30" y2="32.0008" gradientUnits="userSpaceOnUse">
<stop stop-color="#FF5500"/>
<stop offset="0.41" stop-color="#FF5500"/>
<stop offset="0.582" stop-color="#FF2000"/>
<stop offset="1" stop-color="#FF2000"/>
</linearGradient>
<linearGradient id="paint1_linear_1499_4570" x1="3.7582" y1="3.65038" x2="27.5138" y2="3.65038" gradientUnits="userSpaceOnUse">
<stop stop-color="#FF452A"/>
<stop offset="1" stop-color="#FF2000"/>
</linearGradient>
<clipPath id="clip0_1499_4570">
<rect width="30" height="30" fill="white" transform="translate(0.75)"/>
</clipPath>
</defs>
</svg>
