<svg width="24" height="24" viewBox="0 0 24 24" fill="none" xmlns="http://www.w3.org/2000/svg">
<path fill-rule="evenodd" clip-rule="evenodd" d="M19.8796 5.03033C20.1725 4.73744 20.1725 4.26256 19.8796 3.96967C19.5867 3.67678 19.1118 3.67678 18.8189 3.96967L11.705 11.0835L5.03038 4.40887C4.73749 4.11598 4.26261 4.11598 3.96972 4.40887C3.67683 4.70176 3.67683 5.17664 3.96972 5.46953L10.6444 12.1442L3.96967 18.8189C3.67678 19.1118 3.67678 19.5867 3.96967 19.8796C4.26256 20.1725 4.73744 20.1725 5.03033 19.8796L11.705 13.2049L18.819 20.3188C19.1119 20.6117 19.5867 20.6117 19.8796 20.3188C20.1725 20.0259 20.1725 19.551 19.8796 19.2581L12.7657 12.1442L19.8796 5.03033Z" fill="#2C3851"/>
</svg>
