<svg width="31" height="30" viewBox="0 0 31 30" fill="none" xmlns="http://www.w3.org/2000/svg">
<path fill-rule="evenodd" clip-rule="evenodd" d="M15.2499 1.25L2.75 8.38061V22.6425L15.2499 29.774L27.7498 22.6425V8.38061L15.2499 1.25Z" fill="#FEFEFE"/>
<path fill-rule="evenodd" clip-rule="evenodd" d="M15.2499 1.25L2.75 8.38061V22.6425L15.2499 29.774L27.7498 22.6425V8.38061L15.2499 1.25ZM10.3147 7.41553H20.1519L21.3379 12.3711H9.17346L10.3147 7.41553ZM13.1489 15.8875L12.0761 13.1197H18.4461L17.3959 15.8875L17.7009 18.9795L15.2498 18.9907H12.8214L13.1489 15.8875ZM16.2782 22.2608V21.279L18.4802 19.1919V15.8986L21.3605 14.0463L24.6473 16.4905L20.1738 24.1922H18.401L16.2782 22.2608ZM5.85341 16.4905L9.15068 14.0685L12.0649 15.8986V19.1919L14.267 21.2791V22.2609L12.1443 24.2145H10.3481L5.85341 16.4905Z" fill="#002D72"/>
<path fill-rule="evenodd" clip-rule="evenodd" d="M20.1739 24.1922H18.401L16.2782 22.2608V21.279L18.4803 19.1919V15.8986L21.3605 14.0463L24.6474 16.4905L20.1739 24.1922ZM15.25 1.25V7.41572H20.1519L21.338 12.3713H15.25V13.1198H18.4464L17.3962 15.8875L17.701 18.9795L15.25 18.9906V29.774L27.7499 22.6427V8.38061L15.25 1.25Z" fill="url(#paint0_linear_1499_4561)" style="mix-blend-mode:multiply"/>
<path fill-rule="evenodd" clip-rule="evenodd" d="M14.2672 22.2609L12.1443 24.2146H10.3481L5.85343 16.4905L9.15084 14.0687L12.0651 15.8987V19.1919L14.2672 21.2791V22.2609ZM12.8216 18.9906L13.149 15.8875L12.0763 13.1198H15.2499V12.3713H9.17338L10.3148 7.41572H15.2499V1.25L2.75 8.38061V22.6427L15.2499 29.774V18.9906H12.8216Z" fill="url(#paint1_linear_1499_4561)" style="mix-blend-mode:multiply"/>
<defs>
<linearGradient id="paint0_linear_1499_4561" x1="26.4169" y1="26.6969" x2="26.4169" y2="4.25681" gradientUnits="userSpaceOnUse">
<stop stop-color="#002D72"/>
<stop offset="1" stop-color="#002D72" stop-opacity="0.01"/>
</linearGradient>
<linearGradient id="paint1_linear_1499_4561" x1="13.9169" y1="26.6968" x2="13.9169" y2="4.25681" gradientUnits="userSpaceOnUse">
<stop stop-color="#002D72" stop-opacity="0.01"/>
<stop offset="1" stop-color="#002D72"/>
</linearGradient>
</defs>
</svg>
