<svg width="31" height="30" viewBox="0 0 31 30" fill="none" xmlns="http://www.w3.org/2000/svg">
<g clip-path="url(#clip0_1702_1500)">
<path d="M29.1731 1.18018L17.5391 9.82018L19.6901 4.72218L29.1731 1.18018Z" fill="#E2761B" stroke="#E2761B" stroke-width="0.117" stroke-linecap="round" stroke-linejoin="round"/>
<path d="M2.31489 1.18018L13.8549 9.90218L11.8099 4.72218L2.31489 1.18018ZM24.9869 21.2092L21.8889 25.9562L28.5189 27.7802L30.4239 21.3142L24.9869 21.2092ZM1.08789 21.3142L2.98189 27.7802L9.61189 25.9562L6.51189 21.2092L1.08789 21.3142Z" fill="#E4761B" stroke="#E4761B" stroke-width="0.117" stroke-linecap="round" stroke-linejoin="round"/>
<path d="M9.23689 13.1882L7.38989 15.9822L13.9729 16.2752L13.7389 9.20116L9.23689 13.1882ZM22.2499 13.1882L17.6899 9.11816L17.5389 16.2742L24.1099 15.9822L22.2499 13.1882ZM9.61089 25.9562L13.5629 24.0262L10.1499 21.3622L9.61189 25.9572L9.61089 25.9562ZM17.9249 24.0272L21.8879 25.9562L21.3389 21.3612L17.9249 24.0272Z" fill="#E4761B" stroke="#E4761B" stroke-width="0.117" stroke-linecap="round" stroke-linejoin="round"/>
<path d="M21.8891 25.9559L17.9251 24.0259L18.2411 26.6109L18.2051 27.6979L21.8891 25.9559ZM9.61108 25.9559L13.2951 27.6979L13.2711 26.6109L13.5631 24.0269L9.61108 25.9559Z" fill="#D7C1B3" stroke="#D7C1B3" stroke-width="0.117" stroke-linecap="round" stroke-linejoin="round"/>
<path d="M13.3529 19.6541L10.0559 18.6841L12.3829 17.6191L13.3529 19.6541ZM18.1349 19.6541L19.1049 17.6191L21.4449 18.6831L18.1349 19.6531V19.6541Z" fill="#233447" stroke="#233447" stroke-width="0.117" stroke-linecap="round" stroke-linejoin="round"/>
<path d="M9.61094 25.9559L10.1729 21.2089L6.51294 21.3139L9.61094 25.9559ZM21.3269 21.2089L21.8879 25.9559L24.9869 21.3139L21.3269 21.2089ZM24.1099 15.9819L17.5389 16.2749L18.1469 19.6539L19.1169 17.6189L21.4559 18.6829L24.1099 15.9829V15.9819ZM10.0549 18.6829L12.3929 17.6189L13.3529 19.6539L13.9719 16.2739L7.38894 15.9819L10.0549 18.6829Z" fill="#CD6116" stroke="#CD6116" stroke-width="0.117" stroke-linecap="round" stroke-linejoin="round"/>
<path d="M7.38989 15.9819L10.1499 21.3609L10.0559 18.6829L7.38989 15.9829V15.9819ZM21.4559 18.6829L21.3389 21.3609L24.1099 15.9819L21.4559 18.6829ZM13.9729 16.2739L13.3529 19.6539L14.1249 23.6409L14.2999 18.3909L13.9729 16.2749V16.2739ZM17.5389 16.2739L17.2229 18.3789L17.3629 23.6409L18.1469 19.6539L17.5389 16.2739Z" fill="#E4751F" stroke="#E4751F" stroke-width="0.117" stroke-linecap="round" stroke-linejoin="round"/>
<path d="M18.1469 19.6541L17.3629 23.6411L17.9249 24.0271L21.3389 21.3611L21.4559 18.6831L18.1459 19.6531L18.1469 19.6541ZM10.0559 18.6831L10.1489 21.3611L13.5639 24.0271L14.1239 23.6411L13.3529 19.6541L10.0559 18.6841V18.6831Z" fill="#F6851B" stroke="#F6851B" stroke-width="0.117" stroke-linecap="round" stroke-linejoin="round"/>
<path d="M18.2051 27.6981L18.2411 26.6111L17.9481 26.3531H13.5401L13.2711 26.6111L13.2951 27.6981L9.61108 25.9561L10.8981 27.0081L13.5051 28.8211H17.9831L20.6031 27.0081L21.8881 25.9561L18.2051 27.6981Z" fill="#C0AD9E" stroke="#C0AD9E" stroke-width="0.117" stroke-linecap="round" stroke-linejoin="round"/>
<path d="M17.925 24.0271L17.363 23.6411H14.125L13.563 24.0271L13.271 26.6111L13.54 26.3531H17.948L18.24 26.6111L17.925 24.0271Z" fill="#161616" stroke="#161616" stroke-width="0.117" stroke-linecap="round" stroke-linejoin="round"/>
<path d="M29.664 10.3822L30.658 5.61118L29.173 1.18018L17.925 9.52818L22.251 13.1882L28.366 14.9772L29.723 13.3982L29.138 12.9782L30.073 12.1242L29.348 11.5622L30.284 10.8492L29.664 10.3822ZM0.842041 5.61118L1.83604 10.3812L1.20504 10.8492L2.14004 11.5622L1.42704 12.1242L2.36204 12.9772L1.77704 13.3982L3.12204 14.9772L9.23704 13.1872L13.563 9.52718L2.31604 1.18018L0.842041 5.61018V5.61118Z" fill="#763D16" stroke="#763D16" stroke-width="0.117" stroke-linecap="round" stroke-linejoin="round"/>
<path d="M28.3659 14.9772L22.2509 13.1872L24.1109 15.9822L21.3389 21.3612L24.9869 21.3142H30.4239L28.3659 14.9772ZM9.23689 13.1882L3.12189 14.9772L1.08789 21.3142H6.51289L10.1489 21.3612L7.38889 15.9822L9.23689 13.1882ZM17.5389 16.2742L17.9249 9.52817L19.7019 4.72217H11.8099L13.5629 9.52817L13.9729 16.2742L14.1129 18.4022L14.1249 23.6412H17.3629L17.3869 18.4032L17.5389 16.2752V16.2742Z" fill="#F6851B" stroke="#F6851B" stroke-width="0.117" stroke-linecap="round" stroke-linejoin="round"/>
</g>
<defs>
<clipPath id="clip0_1702_1500">
<rect width="30" height="30" fill="white" transform="translate(0.75)"/>
</clipPath>
</defs>
</svg>
