<svg width="18" height="18" viewBox="0 0 18 18" fill="none" xmlns="http://www.w3.org/2000/svg">
<path fill-rule="evenodd" clip-rule="evenodd" d="M14.9099 3.77275C15.1295 3.55308 15.1295 3.19692 14.9099 2.97725C14.6902 2.75758 14.334 2.75758 14.1144 2.97725L8.77891 8.31272L3.77275 3.30656C3.55308 3.08689 3.19692 3.08689 2.97725 3.30656C2.75758 3.52623 2.75758 3.88239 2.97725 4.10206L7.98341 9.10821L2.97744 14.1142C2.75777 14.3339 2.75777 14.69 2.97744 14.9097C3.19711 15.1293 3.55327 15.1293 3.77294 14.9097L8.77891 9.90371L14.1142 15.239C14.3339 15.4587 14.69 15.4587 14.9097 15.239C15.1293 15.0193 15.1293 14.6632 14.9097 14.4435L9.5744 9.10821L14.9099 3.77275Z" fill="white"/>
</svg>
