<svg width="17" height="18" viewBox="0 0 17 18" fill="none" xmlns="http://www.w3.org/2000/svg">
<g clip-path="url(#clip0_1497_14050)">
<path d="M13.8374 13.2933L17 16.4552L15.9552 17.5L12.7933 14.3374C11.6168 15.2805 10.1535 15.7935 8.64566 15.7913C4.97726 15.7913 2 12.8141 2 9.14566C2 5.47726 4.97726 2.5 8.64566 2.5C12.3141 2.5 15.2913 5.47726 15.2913 9.14566C15.2935 10.6535 14.7805 12.1168 13.8374 13.2933ZM12.3562 12.7454C13.2933 11.7817 13.8166 10.4899 13.8145 9.14566C13.8145 6.2895 11.5011 3.97681 8.64566 3.97681C5.7895 3.97681 3.47681 6.2895 3.47681 9.14566C3.47681 12.0011 5.7895 14.3145 8.64566 14.3145C9.98988 14.3166 11.2817 13.7933 12.2454 12.8562L12.3562 12.7454Z" fill="#60605F"/>
</g>
<defs>
<clipPath id="clip0_1497_14050">
<rect width="17" height="17" fill="white" transform="translate(0 0.5)"/>
</clipPath>
</defs>
</svg>
