<svg width="24" height="25" viewBox="0 0 24 25" fill="none" xmlns="http://www.w3.org/2000/svg">
<path fill-rule="evenodd" clip-rule="evenodd" d="M10.7591 2C10.3832 2 10.0654 2.27827 10.0157 2.65088L9.72744 4.81263C9.18077 4.97917 8.64826 5.21168 8.15107 5.48489L6.42273 4.18864C6.12414 3.96469 5.70632 3.99439 5.4424 4.25831L3.66967 6.03103C3.40161 6.2991 3.37573 6.72505 3.60937 7.02359L4.88811 8.65754C4.61667 9.1384 4.38079 9.64968 4.21316 10.2312L2.14752 10.5161C1.77642 10.5673 1.5 10.8845 1.5 11.2591V13.8295C1.5 14.2042 1.77642 14.5213 2.14752 14.5725L4.22327 14.8588C4.3913 15.4111 4.62668 15.9489 4.90338 16.4505L3.67662 18.1824C3.46535 18.4807 3.49985 18.8878 3.75831 19.1462L5.53103 20.919C5.79495 21.1829 6.21277 21.2126 6.51136 20.9886L8.24269 19.6901C8.72783 19.9481 9.21799 20.1383 9.73071 20.2832L10.0161 22.3525C10.0673 22.7236 10.3845 23 10.7591 23H13.3295C13.7042 23 14.0213 22.7236 14.0725 22.3525L14.3588 20.2765C14.8878 20.1149 15.4039 19.8891 15.8675 19.6177L17.5773 20.9C17.8759 21.1239 18.2937 21.0942 18.5576 20.8303L20.3303 19.0576C20.5984 18.7895 20.6243 18.3636 20.3906 18.065L19.1119 16.4311C19.3833 15.9502 19.6192 15.439 19.7868 14.8574L21.8525 14.5725C22.2236 14.5213 22.5 14.2042 22.5 13.8295V11.2591C22.5 10.8845 22.2236 10.5673 21.8525 10.5161L19.7767 10.2298C19.6101 9.68232 19.3774 9.14898 19.1037 8.65107L20.4 6.92273C20.6239 6.62414 20.5942 6.20632 20.3303 5.9424L18.5576 4.16967C18.2937 3.90575 17.8759 3.87606 17.5773 4.1L15.8459 5.39849C15.3616 5.14089 14.8722 4.95088 14.3603 4.80608L14.073 2.65088C14.0233 2.27827 13.7054 2 13.3295 2H10.7591ZM12 16.25C14.0711 16.25 15.75 14.5711 15.75 12.5C15.75 10.4289 14.0711 8.75 12 8.75C9.92893 8.75 8.25 10.4289 8.25 12.5C8.25 14.5711 9.92893 16.25 12 16.25Z" fill="#46A1C2"/>
</svg>
