<svg width="16" height="16" viewBox="0 0 16 16" fill="none" xmlns="http://www.w3.org/2000/svg">
<path fill-rule="evenodd" clip-rule="evenodd" d="M14 10.5C14 10.7761 13.7761 11 13.5 11L2.5 11C2.22386 11 2 10.7761 2 10.5C2 10.2239 2.22386 10 2.5 10L13.5 10C13.7761 10 14 10.2239 14 10.5Z" fill="#46A1C2"/>
<path fill-rule="evenodd" clip-rule="evenodd" d="M4.85355 8.14645C5.04882 8.34171 5.04882 8.65829 4.85355 8.85355L3.20711 10.5L4.85355 12.1464C5.04882 12.3417 5.04882 12.6583 4.85355 12.8536C4.65829 13.0488 4.34171 13.0488 4.14645 12.8536L2.14645 10.8536C1.95118 10.6583 1.95118 10.3417 2.14645 10.1464L4.14645 8.14645C4.34171 7.95118 4.65829 7.95118 4.85355 8.14645Z" fill="#46A1C2"/>
<path fill-rule="evenodd" clip-rule="evenodd" d="M14 5C14 5.27614 13.7761 5.5 13.5 5.5L2.5 5.5C2.22386 5.5 2 5.27614 2 5C2 4.72386 2.22386 4.5 2.5 4.5L13.5 4.5C13.7761 4.5 14 4.72386 14 5Z" fill="#46A1C2"/>
<path fill-rule="evenodd" clip-rule="evenodd" d="M13.8536 4.64645C14.0488 4.84171 14.0488 5.15829 13.8536 5.35355L11.8536 7.35355C11.6583 7.54882 11.3417 7.54882 11.1464 7.35355C10.9512 7.15829 10.9512 6.84171 11.1464 6.64645L12.7929 5L11.1464 3.35355C10.9512 3.15829 10.9512 2.84171 11.1464 2.64645C11.3417 2.45118 11.6583 2.45118 11.8536 2.64645L13.8536 4.64645Z" fill="#46A1C2"/>
</svg>
