<svg xmlns="http://www.w3.org/2000/svg" width="114" height="16" fill="none">
    <g fill="#0E0037">
        <path
            d="M9.722 16c-1.35 0-2.62-.527-3.574-1.48l-3.93-3.927a5.06 5.06 0 0 1 0-7.146l1.964-1.964A5.026 5.026 0 0 1 7.758 0h3.927c1.35 0 2.62.527 3.573 1.48l1.964 1.963a5.06 5.06 0 0 1 0 7.147l-3.927 3.93A5.023 5.023 0 0 1 9.722 16ZM7.758 1.587a3.43 3.43 0 0 0-2.45 1.016L3.342 4.567a3.474 3.474 0 0 0 0 4.903l3.926 3.927a3.45 3.45 0 0 0 2.45 1.016c.927 0 1.797-.36 2.45-1.016l3.927-3.927a3.474 3.474 0 0 0 0-4.903l-1.963-1.964a3.45 3.45 0 0 0-2.45-1.016H7.758Z" />
        <path
            d="M9.722 13.64a2.95 2.95 0 0 1-2.104-.873l-3.553-3.55a2.982 2.982 0 0 1 0-4.21l1.777-1.774a2.952 2.952 0 0 1 2.103-.87h3.55c.793 0 1.543.31 2.103.874l1.777 1.776a2.982 2.982 0 0 1 0 4.21l-3.55 3.544a2.95 2.95 0 0 1-2.103.873ZM7.945 3.95c-.37 0-.72.143-.98.407L5.188 6.133c-.54.54-.54 1.42 0 1.964l3.55 3.55c.524.523 1.44.523 1.964 0l3.55-3.55c.54-.54.54-1.42 0-1.964l-1.777-1.776a1.374 1.374 0 0 0-.98-.407h-3.55Z" />
        <path
            d="M9.722 11.313 5.648 7.24l2.557-2.553h3.033l2.557 2.553-4.073 4.073ZM24.455 2.876h2.48l2.67 7.197 2.67-7.197h2.423l-4.13 10.29h-1.986l-4.127-10.29ZM34.702 2.876h2.48l2.67 7.197 2.67-7.197h2.423l-4.127 10.29h-1.986l-4.13-10.29ZM45.168 11.607l1.33-1.59c.92.76 1.884 1.24 3.05 1.24.92 0 1.474-.364 1.474-.964v-.03c0-.57-.35-.86-2.057-1.3-2.057-.526-3.387-1.093-3.387-3.123v-.03c0-1.853 1.49-3.08 3.577-3.08 1.49 0 2.76.467 3.797 1.3l-1.167 1.693c-.903-.626-1.797-1.006-2.657-1.006-.86 0-1.313.393-1.313.89v.03c0 .67.437.89 2.203 1.343 2.074.54 3.24 1.283 3.24 3.067v.03c0 2.03-1.547 3.166-3.75 3.166a6.53 6.53 0 0 1-4.34-1.636ZM59.008 2.876h7.78V4.92h-5.533v2.173h4.877v2.043h-4.877v3.957h-2.247V2.876ZM68.102 2.876h2.336v1.97h-2.336v-1.97Zm.06 2.83h2.22v7.387h-2.22V5.706ZM72.175 5.27h2.22v1.11c.51-.656 1.167-1.256 2.293-1.256 1.68 0 2.657 1.11 2.657 2.903v5.067h-2.22V8.73c0-1.05-.497-1.59-1.343-1.59-.847 0-1.387.54-1.387 1.59v4.364h-2.22V5.27ZM80.512 10.846v-.03c0-1.706 1.3-2.496 3.153-2.496.787 0 1.357.13 1.913.32v-.13c0-.92-.57-1.43-1.68-1.43-.846 0-1.446.16-2.16.423l-.553-1.693c.86-.38 1.707-.627 3.037-.627 1.21 0 2.086.32 2.643.877.583.583.847 1.446.847 2.496v4.54h-2.147v-.846c-.54.6-1.283.993-2.363.993-1.477-.003-2.69-.85-2.69-2.397Zm5.093-.51v-.393a3.422 3.422 0 0 0-1.417-.293c-.95 0-1.533.38-1.533 1.08v.03c0 .6.497.95 1.21.95 1.04-.004 1.74-.57 1.74-1.374ZM89.328 5.27h2.22v1.11c.51-.656 1.167-1.256 2.294-1.256 1.68 0 2.656 1.11 2.656 2.903v5.067h-2.22V8.73c0-1.05-.496-1.59-1.343-1.59s-1.387.54-1.387 1.59v4.364h-2.22V5.27ZM97.755 9.227v-.03c0-2.233 1.707-4.073 4.103-4.073 1.474 0 2.394.496 3.124 1.313l-1.357 1.46c-.497-.527-.993-.86-1.78-.86-1.11 0-1.897.977-1.897 2.13v.03c0 1.197.774 2.16 1.987 2.16.743 0 1.257-.32 1.797-.833l1.3 1.313c-.76.833-1.634 1.43-3.197 1.43-2.36.003-4.08-1.807-4.08-4.04ZM105.578 9.227v-.03c0-2.233 1.59-4.073 3.87-4.073 2.614 0 3.81 2.03 3.81 4.246 0 .177-.013.38-.03.584h-5.443c.22 1.006.92 1.533 1.913 1.533.744 0 1.284-.233 1.897-.803l1.27 1.123c-.73.906-1.78 1.46-3.197 1.46-2.353.003-4.09-1.647-4.09-4.04Zm5.517-.657c-.13-.993-.717-1.663-1.65-1.663-.92 0-1.517.657-1.693 1.663h3.343Z" />
    </g>
</svg>