<svg width="33" height="34" viewBox="0 0 33 34" fill="none" xmlns="http://www.w3.org/2000/svg">
<g clip-path="url(#clip0_8_83602)">
<path d="M16.5 33.5C25.6127 33.5 33 26.1127 33 17C33 7.8873 25.6127 0.5 16.5 0.5C7.3873 0.5 0 7.8873 0 17C0 26.1127 7.3873 33.5 16.5 33.5Z" fill="url(#paint0_linear_8_83602)"/>
<path d="M16.5004 31.8504C24.7018 31.8504 31.3504 25.2018 31.3504 17.0004C31.3504 8.79896 24.7018 2.15039 16.5004 2.15039C8.29896 2.15039 1.65039 8.79896 1.65039 17.0004C1.65039 25.2018 8.29896 31.8504 16.5004 31.8504Z" fill="url(#paint1_linear_8_83602)"/>
<path d="M16.5004 31.8504C24.7018 31.8504 31.3504 25.2018 31.3504 17.0004C31.3504 8.79896 24.7018 2.15039 16.5004 2.15039C8.29896 2.15039 1.65039 8.79896 1.65039 17.0004C1.65039 25.2018 8.29896 31.8504 16.5004 31.8504Z" stroke="url(#paint2_linear_8_83602)" stroke-width="3.1" stroke-miterlimit="10"/>
<path d="M17.5414 25.4682C16.9269 25.1039 15.2129 25.8325 15.2129 25.8325C15.2129 25.8325 16.1336 26.0754 16.8207 26.1969C17.5084 26.3183 18.1558 25.8325 17.5414 25.4689V25.4682Z" fill="url(#paint3_linear_8_83602)"/>
<path d="M24.4773 23.8817C24.4205 22.5248 23.6484 21.1678 23.6484 21.1678L24.8357 21.3942C24.4964 20.3956 22.83 18.9819 22.83 18.9819C23.3243 18.6017 24.9301 15.5902 24.9301 15.5902L23.8239 15.9129C24.7096 14.7632 25.7524 13.1277 25.961 11.5846C26.3365 8.80669 26.3742 5.69017 23.1454 8.50639C20.8836 10.4791 19.9306 11.4744 19.5623 11.8942C19.0528 11.6064 17.7711 10.9649 16.4372 11.9687C15.3 11.1127 13.9556 11.4559 13.3101 11.7509C12.8666 11.2658 11.8911 10.2824 9.85567 8.50705C6.62695 5.69149 6.66457 8.80735 7.04011 11.5853C7.25131 13.1462 8.31523 14.8015 9.20689 15.9525L7.96675 15.5908C7.96675 15.5908 9.57187 18.6024 10.0669 18.9826C10.0669 18.9826 8.40037 20.3956 8.06113 21.3949L9.24847 21.1685C9.24847 21.1685 8.47561 22.5254 8.41951 23.8824L9.61279 23.3927L10.8318 26.4082L11.2305 24.6335C11.2364 24.6394 13.2415 26.3389 14.8532 27.0035C14.4948 26.5924 14.1457 25.3417 13.7451 24.1405L13.5834 24.7787C13.5834 24.7787 13.4619 24.5668 13.3161 24.2348L13.0969 23.6039C12.6468 22.3083 13.1042 20.8715 14.2196 20.0735L14.5866 19.8115C14.6585 19.7607 14.7245 19.7059 14.7885 19.6498C14.4724 19.7845 14.0935 19.8676 13.6362 19.8676C12.3498 19.8676 11.7538 19.2439 11.4793 18.609C11.8106 19.106 12.4 19.5198 13.4481 19.5198C14.4961 19.5198 15.1924 19.0519 15.5805 18.5087C15.6115 18.4651 15.6412 18.4209 15.6696 18.3767C15.6907 18.343 15.7119 18.3094 15.731 18.2757C15.7482 18.2453 15.764 18.2143 15.7805 18.184C15.795 18.1569 15.8089 18.1298 15.8221 18.1028C15.8373 18.0718 15.8511 18.0414 15.865 18.011C15.8769 17.9833 15.8887 17.9563 15.9 17.9292C15.9118 17.9002 15.9244 17.8711 15.9349 17.8427C15.9495 17.8045 15.9627 17.7662 15.9752 17.7286C15.9877 17.6923 15.999 17.6566 16.0095 17.621C16.0188 17.5913 16.028 17.5616 16.0353 17.5325C16.0419 17.5088 16.0478 17.4863 16.0537 17.4632C16.061 17.4342 16.0683 17.4052 16.0749 17.3774C16.0788 17.3583 16.0834 17.3398 16.0874 17.3213C16.0953 17.2844 16.1019 17.2494 16.1085 17.2157C16.1494 16.9913 16.1547 16.8442 16.1547 16.8442H16.6801C16.6801 16.8442 16.6854 16.9907 16.7263 17.2151C16.7322 17.2494 16.7395 17.2857 16.7474 17.3233C16.7533 17.3491 16.7599 17.3768 16.7665 17.4045C16.7712 17.4236 16.7758 17.4421 16.7804 17.4619C16.7883 17.4929 16.7969 17.5246 16.8061 17.557C16.8108 17.5741 16.816 17.5913 16.8213 17.6084C16.8319 17.6441 16.8431 17.6804 16.8556 17.7173C16.8589 17.7266 16.8622 17.7358 16.8655 17.7451C16.8959 17.8335 16.9309 17.9239 16.9718 18.0157L16.9744 18.0216C16.9923 18.0612 17.0121 18.1015 17.0319 18.1411C17.0404 18.1582 17.049 18.1754 17.0583 18.1925C17.0787 18.2308 17.0998 18.2684 17.1216 18.3067C17.1322 18.3252 17.1441 18.3437 17.1553 18.3622C17.179 18.3998 17.2028 18.4381 17.2285 18.4757C17.2384 18.4895 17.2497 18.5034 17.2596 18.5179C17.2866 18.5555 17.3137 18.5925 17.3427 18.6295C17.3434 18.6308 17.344 18.6321 17.3447 18.6334C17.742 19.1225 18.3756 19.5211 19.3861 19.5211C20.3965 19.5211 21.0242 19.1066 21.3555 18.6097C21.081 19.2446 20.485 19.8683 19.1986 19.8683C18.7578 19.8683 18.3895 19.7911 18.0806 19.665C18.14 19.7158 18.2014 19.7653 18.2667 19.8122L18.6343 20.0749C19.7497 20.8721 20.2071 22.3096 19.757 23.6045L19.4184 24.5807C19.3551 24.7061 19.3128 24.78 19.3128 24.78L19.1511 24.1418C18.7505 25.343 18.4014 26.5937 18.043 27.0049C19.6547 26.3396 21.6604 24.6407 21.6657 24.6348C21.6657 24.6348 21.6657 24.6348 21.6657 24.6341L22.0644 26.4095L23.2834 23.394L24.4766 23.8837L24.4773 23.8817ZM13.6685 18.1919C13.2936 18.0916 13.0705 17.7055 13.1709 17.3299L14.5298 17.6942C14.4295 18.0698 14.0434 18.2922 13.6678 18.1919H13.6685ZM13.6645 15.9307L15.5627 15.7017C15.5627 15.7017 15.5812 14.2451 15.5812 13.9864C15.5812 13.0525 15.9448 12.7555 16.4266 12.7482C16.4266 12.7482 16.4273 12.7475 16.428 12.7475C16.4306 12.7475 16.4332 12.7475 16.4365 12.7475C16.4392 12.7475 16.4418 12.7475 16.4451 12.7475C16.4451 12.7475 16.4458 12.7482 16.4464 12.7482C16.9282 12.7555 17.2919 13.0525 17.2919 13.9864H17.2912V15.7037L19.1709 15.9307H13.6645ZM19.4409 18.1919C19.0653 18.2922 18.6792 18.0698 18.5789 17.6942L19.9378 17.3299C20.0382 17.7055 19.8157 18.0909 19.4402 18.1919H19.4409Z" fill="url(#paint4_linear_8_83602)"/>
<path d="M18.226 22.0642C18.2022 21.0306 16.4169 21.0775 16.4169 21.0775C16.4169 21.0775 14.631 21.0306 14.6079 22.0642C14.5841 23.0977 15.5009 24.4138 16.4169 24.5313C17.333 24.4138 18.2498 23.0977 18.226 22.0642Z" fill="url(#paint5_linear_8_83602)"/>
</g>
<defs>
<linearGradient id="paint0_linear_8_83602" x1="16.5" y1="33.5" x2="16.5" y2="0.5" gradientUnits="userSpaceOnUse">
<stop stop-color="#E94E1B"/>
<stop offset="1" stop-color="#F39200"/>
</linearGradient>
<linearGradient id="paint1_linear_8_83602" x1="5.06325" y1="29.8612" x2="26.8743" y2="5.33489" gradientUnits="userSpaceOnUse">
<stop stop-color="#FAD091"/>
<stop offset="0.5" stop-color="white"/>
<stop offset="1" stop-color="#FAD091"/>
</linearGradient>
<linearGradient id="paint2_linear_8_83602" x1="1.48539" y1="17.0004" x2="31.5154" y2="17.0004" gradientUnits="userSpaceOnUse">
<stop stop-color="#FAD091"/>
<stop offset="0.5" stop-color="white"/>
<stop offset="1" stop-color="#FAD091"/>
</linearGradient>
<linearGradient id="paint3_linear_8_83602" x1="16.4999" y1="27.3901" x2="16.4999" y2="13.8489" gradientUnits="userSpaceOnUse">
<stop stop-color="#E94E1B"/>
<stop offset="1" stop-color="#F39200"/>
</linearGradient>
<linearGradient id="paint4_linear_8_83602" x1="16.4999" y1="27.3903" x2="16.4999" y2="13.8491" gradientUnits="userSpaceOnUse">
<stop stop-color="#E94E1B"/>
<stop offset="1" stop-color="#F39200"/>
</linearGradient>
<linearGradient id="paint5_linear_8_83602" x1="16.4169" y1="27.3904" x2="16.4169" y2="13.8492" gradientUnits="userSpaceOnUse">
<stop stop-color="#E94E1B"/>
<stop offset="1" stop-color="#F39200"/>
</linearGradient>
<clipPath id="clip0_8_83602">
<rect width="33" height="33" fill="white" transform="translate(0 0.5)"/>
</clipPath>
</defs>
</svg>
