<?xml version="1.0" standalone="no"?>
<!DOCTYPE svg PUBLIC "-//W3C//DTD SVG 20010904//EN"
 "http://www.w3.org/TR/2001/REC-SVG-20010904/DTD/svg10.dtd">
<svg version="1.0" xmlns="http://www.w3.org/2000/svg"
 width="256.000000pt" height="256.000000pt" viewBox="0 0 256.000000 256.000000"
 preserveAspectRatio="xMidYMid meet">

<g transform="translate(0.000000,256.000000) scale(0.100000,-0.100000)"
fill="#000000" stroke="none">
<path d="M1140 2549 c-284 -32 -554 -162 -755 -363 -105 -105 -172 -196 -239
-326 -173 -336 -189 -709 -45 -1069 109 -273 343 -523 617 -660 290 -145 658
-169 972 -64 319 107 582 336 734 640 85 169 124 322 133 518 34 778 -644
1412 -1417 1324z m364 -155 c353 -73 656 -311 809 -636 150 -316 141 -700 -24
-1006 -163 -304 -428 -506 -774 -590 -99 -23 -372 -23 -472 1 -228 54 -418
162 -577 327 -215 223 -320 483 -319 790 0 255 64 453 214 663 189 266 483
433 829 471 61 7 240 -4 314 -20z"/>
<path d="M1155 2024 c-65 -14 -116 -30 -164 -53 -65 -30 -172 -127 -208 -188
-31 -54 -63 -153 -63 -198 0 -31 3 -34 38 -39 92 -16 252 -32 259 -27 5 3 16
31 26 61 32 106 119 178 226 187 149 14 269 -91 246 -214 -5 -31 -22 -52 -93
-118 -278 -258 -294 -283 -296 -470 l-1 -110 150 0 150 0 5 81 c7 97 14 110
117 200 123 108 217 205 246 254 14 25 34 74 43 110 32 125 -13 266 -119 371
-69 69 -170 123 -272 144 -64 13 -242 19 -290 9z"/>
<path d="M1154 787 c-2 -7 -3 -69 -2 -138 l3 -124 130 0 130 0 0 135 0 135
-128 3 c-99 2 -129 0 -133 -11z"/>
</g>
</svg>
